<svg width="106" height="47" viewBox="0 0 106 47" fill="none" xmlns="http://www.w3.org/2000/svg">
<path d="M36.5825 16.9823V13.9449H52.2271V16.9823H46.2078V34H42.8237V16.9823H36.5825ZM53.349 34V13.3902H56.6777V21.7395C56.9088 21.3789 57.214 21.0322 57.5931 20.6993C57.9722 20.3572 58.4345 20.0798 58.98 19.8671C59.5348 19.6452 60.1959 19.5343 60.9633 19.5343C61.8787 19.5343 62.7155 19.7099 63.4737 20.0613C64.2319 20.4127 64.8375 20.9212 65.2905 21.5869C65.7436 22.2434 65.9701 23.0293 65.9701 23.9447V34H62.586V24.5134C62.586 23.7737 62.3225 23.2004 61.7955 22.7936C61.2777 22.3867 60.6212 22.1833 59.826 22.1833C59.299 22.1833 58.7951 22.2758 58.3143 22.4607C57.8335 22.6456 57.4451 22.923 57.1492 23.2929C56.8626 23.6535 56.7193 24.1065 56.7193 24.6521V34H53.349ZM70.8372 27.6062C70.828 28.4199 70.9574 29.1411 71.2255 29.7698C71.4937 30.3986 71.8913 30.8933 72.4183 31.2539C72.9453 31.6052 73.5972 31.7809 74.3739 31.7809C75.1691 31.7809 75.8579 31.6052 76.4404 31.2539C77.0322 30.8933 77.4251 30.3477 77.6193 29.6173H80.7122C80.5457 30.6159 80.1482 31.4619 79.5194 32.1554C78.8907 32.8488 78.1279 33.3759 77.231 33.7365C76.3433 34.0971 75.4187 34.2774 74.4571 34.2774C73.0702 34.2774 71.8497 33.9861 70.7956 33.4036C69.7508 32.8119 68.9325 31.9705 68.3407 30.8794C67.7582 29.7883 67.4669 28.4892 67.4669 26.9821C67.4669 25.512 67.7351 24.2082 68.2714 23.071C68.8077 21.9244 69.5797 21.0229 70.5876 20.3664C71.6046 19.7099 72.8251 19.3817 74.2491 19.3817C75.6637 19.3817 76.8519 19.6822 77.8135 20.2832C78.7843 20.8842 79.5148 21.7256 80.0048 22.8074C80.5041 23.88 80.7538 25.1375 80.7538 26.5799V27.6062H70.8372ZM70.8372 25.512H77.5638C77.5638 24.8185 77.4436 24.1944 77.2032 23.6396C76.9628 23.0756 76.593 22.6318 76.0937 22.3081C75.6036 21.9753 74.9841 21.8088 74.2352 21.8088C73.4955 21.8088 72.8714 21.9891 72.3628 22.3497C71.8543 22.7104 71.4706 23.1773 71.2117 23.7506C70.9528 24.3146 70.828 24.9017 70.8372 25.512ZM82.5126 34V19.6591H85.7441V22.7658C85.9753 22.0539 86.3035 21.4482 86.7289 20.9489C87.1634 20.4404 87.672 20.0521 88.2545 19.7839C88.837 19.5158 89.4704 19.3817 90.1546 19.3817C90.321 19.3817 90.4828 19.391 90.64 19.4094C90.7972 19.4279 90.9128 19.4603 90.9868 19.5065V22.7381C90.8851 22.6919 90.751 22.6595 90.5845 22.641C90.4274 22.6225 90.2887 22.6133 90.1685 22.6133C89.475 22.5578 88.8601 22.5855 88.3238 22.6965C87.7968 22.8074 87.3484 22.997 86.9785 23.2651C86.6179 23.524 86.3452 23.8569 86.1602 24.2637C85.9753 24.6613 85.8828 25.1282 85.8828 25.6645V34H82.5126ZM95.9977 34.2774C95.0823 34.2774 94.2594 34.111 93.529 33.7781C92.8078 33.436 92.2391 32.9506 91.823 32.3218C91.4162 31.6838 91.2128 30.9118 91.2128 30.0056C91.2128 28.4245 91.7814 27.2318 92.9187 26.4273C94.0652 25.6229 95.8914 25.2022 98.3971 25.1652L100.533 25.1097V24.1389C100.533 23.3807 100.306 22.7889 99.8534 22.3636C99.4096 21.929 98.7161 21.7164 97.773 21.7256C97.0795 21.7349 96.4415 21.9013 95.859 22.2249C95.2857 22.5393 94.9067 23.071 94.7217 23.8199H91.8508C91.9063 22.8398 92.1883 22.0215 92.6968 21.365C93.2146 20.6993 93.9219 20.2046 94.8188 19.881C95.7157 19.5481 96.7513 19.3817 97.9255 19.3817C99.294 19.3817 100.408 19.562 101.268 19.9226C102.128 20.2832 102.761 20.8056 103.168 21.4898C103.575 22.1648 103.778 22.9831 103.778 23.9447V34H100.935L100.672 31.4203C100.154 32.5021 99.4974 33.2511 98.7022 33.6671C97.9163 34.074 97.0148 34.2774 95.9977 34.2774ZM97.0934 31.9889C97.5095 31.9889 97.9209 31.915 98.3278 31.767C98.7346 31.6098 99.1044 31.4018 99.4373 31.1429C99.7702 30.8748 100.034 30.5789 100.228 30.2553C100.431 29.9317 100.533 29.5942 100.533 29.2428V26.9821L98.7716 27.0098C97.9024 27.0191 97.1442 27.1116 96.497 27.2872C95.8498 27.4629 95.3412 27.7449 94.9714 28.1333C94.6108 28.5124 94.4305 29.0209 94.4305 29.6589C94.4305 30.3893 94.6847 30.9626 95.1933 31.3787C95.7018 31.7855 96.3352 31.9889 97.0934 31.9889Z" fill="#608FD3"/>
<rect x="7.5" y="13.5" width="19" height="19" stroke="#608FD3" stroke-width="3"/>
</svg>
