<svg width="77" height="40" viewBox="0 0 77 40" fill="none" xmlns="http://www.w3.org/2000/svg">
<path d="M6.444 31.808H2.54V19.264H-0.5V16H2.54V11.072H6.444V16H9.516V19.264H6.444V31.808Z" fill="white"/>
<path d="M14.887 31.808H10.983V8H14.919V18.048C15.911 16.512 17.767 15.52 20.039 15.52C23.943 15.52 25.991 17.984 25.991 22.08V31.808H22.087V23.008C22.087 20.352 20.775 19.072 18.791 19.072C16.327 19.072 14.887 20.8 14.887 23.168V31.808Z" fill="white"/>
<path d="M35.9387 32.224C31.2347 32.224 27.9387 28.8 27.9387 23.904C27.9387 18.944 31.1707 15.52 35.8107 15.52C40.5467 15.52 43.5547 18.688 43.5547 23.616V24.8L31.6507 24.832C31.9388 27.616 33.4108 29.024 36.0028 29.024C38.1468 29.024 39.5547 28.192 40.0028 26.688H43.6187C42.9467 30.144 40.0667 32.224 35.9387 32.224ZM35.8427 18.72C33.5387 18.72 32.1307 19.968 31.7467 22.336H39.6828C39.6828 20.16 38.1787 18.72 35.8427 18.72Z" fill="white"/>
<path d="M55.6392 15.936V19.552H54.1992C51.3832 19.552 49.6232 21.056 49.6232 24.128V31.808H45.7192V16.032H49.3992L49.6232 18.336C50.2952 16.768 51.7992 15.712 53.9112 15.712C54.4552 15.712 54.9992 15.776 55.6392 15.936Z" fill="white"/>
<path d="M61.4007 32.224C58.0407 32.224 55.9927 30.272 55.9927 27.296C55.9927 24.384 58.1047 22.56 61.8487 22.272L66.5848 21.92V21.568C66.5848 19.424 65.3047 18.56 63.3208 18.56C61.0168 18.56 59.7367 19.52 59.7367 21.184H56.4087C56.4087 17.76 59.2248 15.52 63.5128 15.52C67.7688 15.52 70.3928 17.824 70.3928 22.208V31.808H66.9688L66.6808 29.472C66.0088 31.104 63.8647 32.224 61.4007 32.224ZM62.6807 29.28C65.0807 29.28 66.6168 27.84 66.6168 25.408V24.576L63.3208 24.832C60.8888 25.056 59.9607 25.856 59.9607 27.136C59.9607 28.576 60.9207 29.28 62.6807 29.28Z" fill="white"/>
</svg>
