<svg width="78" height="40" viewBox="0 0 78 40" fill="none" xmlns="http://www.w3.org/2000/svg">
<path d="M7.444 31.808H3.54V19.264H0.5V16H3.54V11.072H7.444V16H10.516V19.264H7.444V31.808Z" fill="black"/>
<path d="M15.887 31.808H11.983V8H15.919V18.048C16.911 16.512 18.767 15.52 21.039 15.52C24.943 15.52 26.991 17.984 26.991 22.08V31.808H23.087V23.008C23.087 20.352 21.775 19.072 19.791 19.072C17.327 19.072 15.887 20.8 15.887 23.168V31.808Z" fill="black"/>
<path d="M36.9387 32.224C32.2347 32.224 28.9387 28.8 28.9387 23.904C28.9387 18.944 32.1707 15.52 36.8107 15.52C41.5468 15.52 44.5547 18.688 44.5547 23.616V24.8L32.6507 24.832C32.9387 27.616 34.4108 29.024 37.0028 29.024C39.1468 29.024 40.5548 28.192 41.0028 26.688H44.6187C43.9467 30.144 41.0667 32.224 36.9387 32.224ZM36.8427 18.72C34.5387 18.72 33.1307 19.968 32.7467 22.336H40.6828C40.6828 20.16 39.1787 18.72 36.8427 18.72Z" fill="black"/>
<path d="M56.6392 15.936V19.552H55.1992C52.3832 19.552 50.6232 21.056 50.6232 24.128V31.808H46.7192V16.032H50.3992L50.6232 18.336C51.2952 16.768 52.7992 15.712 54.9112 15.712C55.4552 15.712 55.9992 15.776 56.6392 15.936Z" fill="black"/>
<path d="M62.4007 32.224C59.0407 32.224 56.9927 30.272 56.9927 27.296C56.9927 24.384 59.1047 22.56 62.8487 22.272L67.5848 21.92V21.568C67.5848 19.424 66.3048 18.56 64.3208 18.56C62.0168 18.56 60.7367 19.52 60.7367 21.184H57.4087C57.4087 17.76 60.2248 15.52 64.5128 15.52C68.7688 15.52 71.3928 17.824 71.3928 22.208V31.808H67.9688L67.6808 29.472C67.0088 31.104 64.8647 32.224 62.4007 32.224ZM63.6807 29.28C66.0807 29.28 67.6168 27.84 67.6168 25.408V24.576L64.3208 24.832C61.8888 25.056 60.9607 25.856 60.9607 27.136C60.9607 28.576 61.9207 29.28 63.6807 29.28Z" fill="black"/>
</svg>
